{"title":"Krigen.2015.DANISH.1080p.WEB-DL.DD5.1.H.264-ROLLiT","uid":13423099,"size":4536893723,"categoryP":"video","categoryS":"movies","magnet":"?xt=urn:btih:8127a2b60bb6364cad4ebc4decf23f92e7b3f772&amp;dn=Krigen.2015.DANISH.1080p.WEB-DL.DD5.1.H.264-ROLLiT&amp;tr=udp%3A%2F%2Ftracker.leechers-paradise.org%3A6969&amp;tr=udp%3A%2F%2Fzer0day.ch%3A1337&amp;tr=udp%3A%2F%2Fopen.demonii.com%3A1337&amp;tr=udp%3A%2F%2Ftracker.coppersurfer.tk%3A6969&amp;tr=udp%3A%2F%2Fexodus.desync.com%3A6969","seeders":1,"leechers":0,"uploader":"noriegaRJ","files":6,"time":1454568873,"description":"Title: Krigen aka A War\r\n\r\nRelease: Krigen.2015.DANISH.1080p.WEB-DL.DD5.1.H.264-ROLLiT\r\n\r\n\r\nIMDB Link:                                                         \nhttp://www.imdb.com/title/tt3830162/\r\n\r\n\r\nPlot: Company commander Claus M. Pedersen (Pilou Asbæk) and his men are stationed in an Afghan province. Meanwhile back in Denmark Claus' wife Maria (Tuva Novotny) is trying to hold everyday life together with a husband at war and three children missing their father. During a routine mission, the soldiers are caught in heavy crossfire and in order to save his men, Claus makes a decision that has grave consequences for him - and his family back home.\r\n\r\n\r\nDANISH, SWEDISH, NORWEGIAN AND FINNISH SUBTITLES IN MKV CONTAINER.\r\n\r\n\r\n\r\nGeneral\r\nComplete name                            : Krigen.2015.DANISH.1080p.WEB-DL.DD5.1.H.264-ROLLiT\r\nFormat                                   : Matroska\r\nFormat version                           : Version 4 / Version 2\r\nFile size                                : 4.22 GiB\r\nDuration                                 : 1h 50mn\r\nOverall bit rate                         : 5 489 Kbps\r\nMovie name                               : ROLLiT @ www.DanishBits.org\r\nEncoded date                             : UTC 2016-01-14 05:28:59\r\nWriting application                      : mkvmerge v8.2.0 ('World of Adventure') 32bit\r\nWriting library                          : libebml v1.3.1 + libmatroska v1.4.2\r\n\r\nVideo\r\nID                                       : 2\r\nFormat                                   : AVC\r\nFormat/Info                              : Advanced Video Codec\r\nFormat profile                           :   \r\nFormat settings, CABAC                   : Yes\r\nFormat settings, ReFrames                : 4 frames\r\nCodec ID                                 : V_MPEG4/ISO/AVC\r\nDuration                                 : 1h 50mn\r\nBit rate                                 : 4 996 Kbps\r\nWidth                                    : 1 916 pixels\r\nHeight                                   : 1 038 pixels\r\nDisplay aspect ratio                     : 1.85:1\r\nFrame rate mode                          : Constant\r\nFrame rate                               : 25.000 fps\r\nColor space                              : YUV\r\nChroma subsampling                       : 4:2:0\r\nBit depth                                : 8 bits\r\nScan type                                : Progressive\r\nBits/(Pixel*Frame)                       : 0.100\r\nStream size                              : 3.85 GiB (91%)\r\nLanguage                                 : English\r\nDefault                                  : Yes\r\nForced                                   : No\r\nColor primaries                          : BT.709\r\nTransfer characteristics                 : BT.709\r\nMatrix coefficients                      : BT.709\r\n\r\nAudio\r\nID                                       : 1\r\nFormat                                   : AC-3\r\nFormat/Info                              : Audio Coding 3\r\nMode extension                           : CM (complete main)\r\nFormat settings, Endianness              : Big\r\nCodec ID                                 : A_AC3\r\nDuration                                 : 1h 50mn\r\nBit rate mode                            : Constant\r\nBit rate                                 : 384 Kbps\r\nChannel count                            : 6 channels\r\nChannel positions                        : Front: L C R, Side: L R, LFE\r\nSampling rate                            : 48.0 KHz\r\nBit depth                                : 16 bits\r\nCompression mode                         : Lossy\r\nStream size                              : 303 MiB (7%)\r\nLanguage                                 : Danish\r\nDefault                                  : Yes\r\nForced                                   : No\r\n\r\nText #1\r\nID                                       : 3\r\nFormat                                   : UTF-8\r\nCodec ID                                 : S_TEXT/UTF8\r\nCodec ID/Info                            : UTF-8 Plain Text\r\nLanguage                                 : Swedish\r\nDefault                                  : No\r\nForced                                   : No\r\n\r\nText #2\r\nID                                       : 4\r\nFormat                                   : UTF-8\r\nCodec ID                                 : S_TEXT/UTF8\r\nCodec ID/Info                            : UTF-8 Plain Text\r\nLanguage                                 : Norwegian\r\nDefault                                  : No\r\nForced                                   : No\r\n\r\nText #3\r\nID                                       : 5\r\nFormat                                   : UTF-8\r\nCodec ID                                 : S_TEXT/UTF8\r\nCodec ID/Info                            : UTF-8 Plain Text\r\nLanguage                                 : Finnish\r\nDefault                                  : No\r\nForced                                   : No\r\n\r\nText #4\r\nID                                       : 6\r\nFormat                                   : UTF-8\r\nCodec ID                                 : S_TEXT/UTF8\r\nCodec ID/Info                            : UTF-8 Plain Text\r\nLanguage                                 : Danish\r\nDefault                                  : Yes\r\nForced                                   : No\r\n\r\n\r\n\r\nThanks to those helping me seed. Leechers remember, the community depends on you. If nobody shares, the freebies go away. Remember, the only reason you can download this free movie is because others are generous enough to keep sharing it with you. If nobody shares, everybody loses, so even if its for an extra hour or two after you get it, remember, others want to see it too, and they can't without you.\r\n\r\n\r\nSEE MY OTHERS UPLOADS:                                                                                 \nhttp://thepiratebay.se/user/noriegaRJ\r\n\r\nAND SEE THIS ANOTHERS UPLOADS FROM &quot;HORiZON-ArtSubs&quot;:                                 \nhttp://thepiratebay.se/user/artsubs                                 \nhttp://thepiratebay.se/user/lletaif","torrent":{"xt":"urn:btih:8127a2b60bb6364cad4ebc4decf23f92e7b3f772","amp;dn":"Krigen.2015.DANISH.1080p.WEB-DL.DD5.1.H.264-ROLLiT","amp;tr":["udp%3A%2F%2Ftracker.leechers-paradise.org%3A6969","udp%3A%2F%2Fzer0day.ch%3A1337","udp%3A%2F%2Fopen.demonii.com%3A1337","udp%3A%2F%2Ftracker.coppersurfer.tk%3A6969","udp%3A%2F%2Fexodus.desync.com%3A6969"],"infoHash":"8127a2b60bb6364cad4ebc4decf23f92e7b3f772","infoHashBuffer":{"type":"Buffer","data":[129,39,162,182,11,182,54,76,173,78,188,77,236,242,63,146,231,179,247,114]},"announce":[],"urlList":[]}}